<svg width="2175" height="2175" viewBox="0 0 2175 2175" fill="none" xmlns="http://www.w3.org/2000/svg">
<mask id="path-1-inside-1_206_113" fill="white">
<path fill-rule="evenodd" clip-rule="evenodd" d="M1344.25 1253.17L1087.5 1313.77L1087.5 1057.72L1344.25 997.116L1344.25 997.115V997.116L1601 1057.88V1314.63L1344.25 1253.87V1253.17Z"/>
</mask>
<path fill-rule="evenodd" clip-rule="evenodd" d="M1344.25 1253.17L1087.5 1313.77L1087.5 1057.72L1344.25 997.116L1344.25 997.115V997.116L1601 1057.88V1314.63L1344.25 1253.87V1253.17Z" fill="white"/>
<path d="M1087.5 1313.77L1082.5 1313.77L1082.5 1320.09L1088.65 1318.64L1087.5 1313.77ZM1344.25 1253.17H1349.25V1246.86L1343.1 1248.31L1344.25 1253.17ZM1087.5 1057.72L1086.35 1052.85L1082.5 1053.76L1082.5 1057.72L1087.5 1057.72ZM1344.25 997.116L1345.4 1001.98L1346.2 1001.79L1346.9 1001.36L1344.25 997.116ZM1344.25 997.115H1349.25V988.105L1341.61 992.873L1344.25 997.115ZM1344.25 997.116H1339.25V1001.07L1343.1 1001.98L1344.25 997.116ZM1601 1057.88H1606V1053.93L1602.15 1053.01L1601 1057.88ZM1601 1314.63L1599.85 1319.5L1606 1320.95V1314.63H1601ZM1344.25 1253.87H1339.25V1257.82L1343.1 1258.73L1344.25 1253.87ZM1088.65 1318.64L1345.4 1258.04L1343.1 1248.31L1086.35 1308.91L1088.65 1318.64ZM1082.5 1057.72L1082.5 1313.77L1092.5 1313.77L1092.5 1057.72L1082.5 1057.72ZM1343.1 992.249L1086.35 1052.85L1088.65 1062.58L1345.4 1001.98L1343.1 992.249ZM1341.61 992.873L1341.6 992.873L1346.9 1001.36L1346.9 1001.36L1341.61 992.873ZM1349.25 997.116V997.115H1339.25V997.116H1349.25ZM1343.1 1001.98L1599.85 1062.75L1602.15 1053.01L1345.4 992.25L1343.1 1001.98ZM1596 1057.88V1314.63H1606V1057.88H1596ZM1602.15 1309.76L1345.4 1249L1343.1 1258.73L1599.85 1319.5L1602.15 1309.76ZM1349.25 1253.87V1253.17H1339.25V1253.87H1349.25Z" fill="black" mask="url(#path-1-inside-1_206_113)"/>
<path d="M1090 1311.8V1060.18L1341.75 1119.77V1371.38L1090 1311.8Z" fill="white" stroke="black" stroke-width="5"/>
<path d="M1598.5 1311.96V1061.04L1346.75 1120.46V1371.38L1598.5 1311.96Z" fill="black" stroke="black" stroke-width="5"/>
<mask id="path-5-inside-2_206_113" fill="white">
<path fill-rule="evenodd" clip-rule="evenodd" d="M1344.25 1704.03L1601 1764.8V1508.05L1344.25 1447.28L1344.25 1447.28V1447.28L1087.5 1507.88L1087.5 1763.94L1344.25 1703.34V1704.03Z"/>
</mask>
<path fill-rule="evenodd" clip-rule="evenodd" d="M1344.25 1704.03L1601 1764.8V1508.05L1344.25 1447.28L1344.25 1447.28V1447.28L1087.5 1507.88L1087.5 1763.94L1344.25 1703.34V1704.03Z" fill="white"/>
<path d="M1601 1764.8L1599.85 1769.66L1606 1771.12V1764.8H1601ZM1344.25 1704.03H1339.25V1707.99L1343.1 1708.9L1344.25 1704.03ZM1601 1508.05H1606V1504.09L1602.15 1503.18L1601 1508.05ZM1344.25 1447.28L1342.29 1451.88L1342.68 1452.05L1343.1 1452.15L1344.25 1447.28ZM1344.25 1447.28L1346.21 1442.68L1339.25 1439.72V1447.28H1344.25ZM1344.25 1447.28L1345.4 1452.15L1349.25 1451.24V1447.28H1344.25ZM1087.5 1507.88L1086.35 1503.02L1082.5 1503.93L1082.5 1507.88L1087.5 1507.88ZM1087.5 1763.94L1082.5 1763.94L1082.5 1770.26L1088.65 1768.81L1087.5 1763.94ZM1344.25 1703.34H1349.25V1697.02L1343.1 1698.48L1344.25 1703.34ZM1602.15 1759.93L1345.4 1699.17L1343.1 1708.9L1599.85 1769.66L1602.15 1759.93ZM1596 1508.05V1764.8H1606V1508.05H1596ZM1343.1 1452.15L1599.85 1512.91L1602.15 1503.18L1345.4 1442.42L1343.1 1452.15ZM1342.29 1451.88L1342.29 1451.88L1346.21 1442.68L1346.21 1442.68L1342.29 1451.88ZM1349.25 1447.28V1447.28H1339.25V1447.28H1349.25ZM1343.1 1442.42L1086.35 1503.02L1088.65 1512.75L1345.4 1452.15L1343.1 1442.42ZM1082.5 1507.88L1082.5 1763.94L1092.5 1763.94L1092.5 1507.88L1082.5 1507.88ZM1088.65 1768.81L1345.4 1708.21L1343.1 1698.48L1086.35 1759.08L1088.65 1768.81ZM1349.25 1704.03V1703.34H1339.25V1704.03H1349.25Z" fill="black" mask="url(#path-5-inside-2_206_113)"/>
<path d="M1090 1761.96V1510.35L1341.75 1569.93V1821.55L1090 1761.96Z" fill="white" stroke="black" stroke-width="5"/>
<path d="M1598.5 1762.13V1511.21L1346.75 1570.63V1821.55L1598.5 1762.13Z" fill="black" stroke="black" stroke-width="5"/>
<mask id="path-9-inside-3_206_113" fill="white">
<path fill-rule="evenodd" clip-rule="evenodd" d="M1087.5 1763.25L830.751 1823.85L830.751 1567.79L1087.5 1507.19L1087.5 1507.19V1507.19L1344.25 1567.96V1824.71L1087.5 1763.94V1763.25Z"/>
</mask>
<path fill-rule="evenodd" clip-rule="evenodd" d="M1087.5 1763.25L830.751 1823.85L830.751 1567.79L1087.5 1507.19L1087.5 1507.19V1507.19L1344.25 1567.96V1824.71L1087.5 1763.94V1763.25Z" fill="white"/>
<path d="M830.751 1823.85L825.751 1823.85L825.751 1830.17L831.9 1828.72L830.751 1823.85ZM1087.5 1763.25H1092.5V1756.93L1086.35 1758.38L1087.5 1763.25ZM830.751 1567.79L829.602 1562.93L825.751 1563.83L825.751 1567.79L830.751 1567.79ZM1087.5 1507.19L1088.65 1512.06L1088.72 1512.04L1088.79 1512.02L1087.5 1507.19ZM1087.5 1507.19H1092.5V1500.68L1086.21 1502.36L1087.5 1507.19ZM1087.5 1507.19H1082.5V1511.15L1086.35 1512.06L1087.5 1507.19ZM1344.25 1567.96H1349.25V1564L1345.4 1563.09L1344.25 1567.96ZM1344.25 1824.71L1343.1 1829.57L1349.25 1831.03V1824.71H1344.25ZM1087.5 1763.94H1082.5V1767.9L1086.35 1768.81L1087.5 1763.94ZM831.9 1828.72L1088.65 1768.12L1086.35 1758.38L829.602 1818.98L831.9 1828.72ZM825.751 1567.79L825.751 1823.85L835.751 1823.85L835.751 1567.79L825.751 1567.79ZM1086.35 1502.33L829.602 1562.93L831.9 1572.66L1088.65 1512.06L1086.35 1502.33ZM1086.21 1502.36L1086.21 1502.36L1088.79 1512.02L1088.79 1512.02L1086.21 1502.36ZM1092.5 1507.19V1507.19H1082.5V1507.19H1092.5ZM1086.35 1512.06L1343.1 1572.82L1345.4 1563.09L1088.65 1502.33L1086.35 1512.06ZM1339.25 1567.96V1824.71H1349.25V1567.96H1339.25ZM1345.4 1819.84L1088.65 1759.08L1086.35 1768.81L1343.1 1829.57L1345.4 1819.84ZM1092.5 1763.94V1763.25H1082.5V1763.94H1092.5Z" fill="black" mask="url(#path-9-inside-3_206_113)"/>
<path d="M833.251 1821.87V1570.26L1085 1629.84V1881.45L833.251 1821.87Z" fill="white" stroke="black" stroke-width="5"/>
<path d="M1341.75 1822.03V1571.11L1090 1630.53V1881.46L1341.75 1822.03Z" fill="black" stroke="black" stroke-width="5"/>
<mask id="path-13-inside-4_206_113" fill="white">
<path fill-rule="evenodd" clip-rule="evenodd" d="M1087.5 1508.9L1344.25 1569.67V1312.92L1087.5 1252.15L1087.5 1252.15V1252.15L830.751 1312.75L830.751 1568.81L1087.5 1508.21V1508.9Z"/>
</mask>
<path fill-rule="evenodd" clip-rule="evenodd" d="M1087.5 1508.9L1344.25 1569.67V1312.92L1087.5 1252.15L1087.5 1252.15V1252.15L830.751 1312.75L830.751 1568.81L1087.5 1508.21V1508.9Z" fill="white"/>
<path d="M1344.25 1569.67L1343.1 1574.53L1349.25 1575.99V1569.67H1344.25ZM1087.5 1508.9H1082.5V1512.86L1086.35 1513.77L1087.5 1508.9ZM1344.25 1312.92H1349.25V1308.96L1345.4 1308.05L1344.25 1312.92ZM1087.5 1252.15L1085.43 1256.71L1085.88 1256.91L1086.35 1257.02L1087.5 1252.15ZM1087.5 1252.15L1089.57 1247.6L1082.5 1244.39V1252.15H1087.5ZM1087.5 1252.15L1088.65 1257.02L1092.5 1256.11V1252.15H1087.5ZM830.751 1312.75L829.602 1307.89L825.751 1308.8L825.751 1312.75L830.751 1312.75ZM830.751 1568.81L825.751 1568.81L825.751 1575.13L831.9 1573.68L830.751 1568.81ZM1087.5 1508.21H1092.5V1501.89L1086.35 1503.35L1087.5 1508.21ZM1345.4 1564.8L1088.65 1504.04L1086.35 1513.77L1343.1 1574.53L1345.4 1564.8ZM1339.25 1312.92V1569.67H1349.25V1312.92H1339.25ZM1086.35 1257.02L1343.1 1317.78L1345.4 1308.05L1088.65 1247.29L1086.35 1257.02ZM1085.43 1256.71L1085.43 1256.71L1089.57 1247.6L1089.57 1247.6L1085.43 1256.71ZM1092.5 1252.15V1252.15H1082.5V1252.15H1092.5ZM1086.35 1247.29L829.602 1307.89L831.9 1317.62L1088.65 1257.02L1086.35 1247.29ZM825.751 1312.75L825.751 1568.81L835.751 1568.81L835.751 1312.75L825.751 1312.75ZM831.9 1573.68L1088.65 1513.08L1086.35 1503.35L829.602 1563.95L831.9 1573.68ZM1092.5 1508.9V1508.21H1082.5V1508.9H1092.5Z" fill="black" mask="url(#path-13-inside-4_206_113)"/>
<path d="M833.251 1566.83V1315.22L1085 1374.8V1626.42L833.251 1566.83Z" fill="white" stroke="black" stroke-width="5"/>
<path d="M1341.75 1567V1316.08L1090 1375.5V1626.42L1341.75 1567Z" fill="black" stroke="black" stroke-width="5"/>
<mask id="path-17-inside-5_206_113" fill="white">
<path fill-rule="evenodd" clip-rule="evenodd" d="M1087.5 1254.33L830.751 1314.93L830.751 1058.87L1087.5 998.27L1087.5 998.27V998.27L1344.25 1059.03V1315.78L1087.5 1255.02V1254.33Z"/>
</mask>
<path fill-rule="evenodd" clip-rule="evenodd" d="M1087.5 1254.33L830.751 1314.93L830.751 1058.87L1087.5 998.27L1087.5 998.27V998.27L1344.25 1059.03V1315.78L1087.5 1255.02V1254.33Z" fill="white"/>
<path d="M830.751 1314.93L825.751 1314.93L825.751 1321.25L831.9 1319.79L830.751 1314.93ZM1087.5 1254.33H1092.5V1248.01L1086.35 1249.46L1087.5 1254.33ZM830.751 1058.87L829.602 1054L825.751 1054.91L825.751 1058.87L830.751 1058.87ZM1087.5 998.27L1088.65 1003.14L1088.77 1003.11L1088.89 1003.07L1087.5 998.27ZM1087.5 998.27H1092.5V991.614L1086.11 993.468L1087.5 998.27ZM1087.5 998.27H1082.5V1002.23L1086.35 1003.14L1087.5 998.27ZM1344.25 1059.03H1349.25V1055.08L1345.4 1054.17L1344.25 1059.03ZM1344.25 1315.78L1343.1 1320.65L1349.25 1322.11V1315.78H1344.25ZM1087.5 1255.02H1082.5V1258.97L1086.35 1259.89L1087.5 1255.02ZM831.9 1319.79L1088.65 1259.19L1086.35 1249.46L829.602 1310.06L831.9 1319.79ZM825.751 1058.87L825.751 1314.93L835.751 1314.93L835.751 1058.87L825.751 1058.87ZM1086.35 993.404L829.602 1054L831.9 1063.74L1088.65 1003.14L1086.35 993.404ZM1086.11 993.468L1086.11 993.468L1088.89 1003.07L1088.89 1003.07L1086.11 993.468ZM1092.5 998.27V998.27H1082.5V998.27H1092.5ZM1086.35 1003.14L1343.1 1063.9L1345.4 1054.17L1088.65 993.405L1086.35 1003.14ZM1339.25 1059.03V1315.78H1349.25V1059.03H1339.25ZM1345.4 1310.92L1088.65 1250.15L1086.35 1259.89L1343.1 1320.65L1345.4 1310.92ZM1092.5 1255.02V1254.33H1082.5V1255.02H1092.5Z" fill="black" mask="url(#path-17-inside-5_206_113)"/>
<path d="M833.251 1312.95V1061.34L1085 1120.92V1372.53L833.251 1312.95Z" fill="white" stroke="black" stroke-width="5"/>
<path d="M1341.75 1313.11V1062.19L1090 1121.61V1372.53L1341.75 1313.11Z" fill="black" stroke="black" stroke-width="5"/>
<mask id="path-21-inside-6_206_113" fill="white">
<path fill-rule="evenodd" clip-rule="evenodd" d="M1087.5 998.827L1344.25 1059.59V802.841L1087.5 742.077L1087.5 742.077V742.078L830.751 802.678L830.751 1058.74L1087.5 998.136V998.827Z"/>
</mask>
<path fill-rule="evenodd" clip-rule="evenodd" d="M1087.5 998.827L1344.25 1059.59V802.841L1087.5 742.077L1087.5 742.077V742.078L830.751 802.678L830.751 1058.74L1087.5 998.136V998.827Z" fill="white"/>
<path d="M1344.25 1059.59L1343.1 1064.46L1349.25 1065.91V1059.59H1344.25ZM1087.5 998.827H1082.5V1002.78L1086.35 1003.69L1087.5 998.827ZM1344.25 802.841H1349.25V798.886L1345.4 797.975L1344.25 802.841ZM1087.5 742.077L1085.43 746.63L1085.88 746.831L1086.35 746.943L1087.5 742.077ZM1087.5 742.077L1089.57 737.524L1082.5 734.314V742.077H1087.5ZM1087.5 742.078L1088.65 746.944L1092.5 746.035V742.078H1087.5ZM830.751 802.678L829.603 797.811L825.751 798.72L825.751 802.678L830.751 802.678ZM830.751 1058.74L825.751 1058.74L825.751 1065.05L831.9 1063.6L830.751 1058.74ZM1087.5 998.136H1092.5V991.818L1086.35 993.269L1087.5 998.136ZM1345.4 1054.73L1088.65 993.961L1086.35 1003.69L1343.1 1064.46L1345.4 1054.73ZM1339.25 802.841V1059.59H1349.25V802.841H1339.25ZM1086.35 746.943L1343.1 807.706L1345.4 797.975L1088.65 737.212L1086.35 746.943ZM1085.43 746.629L1085.43 746.63L1089.57 737.525L1089.57 737.524L1085.43 746.629ZM1092.5 742.078V742.077H1082.5V742.078H1092.5ZM1086.35 737.211L829.603 797.811L831.9 807.544L1088.65 746.944L1086.35 737.211ZM825.751 802.678L825.751 1058.74L835.751 1058.74L835.751 802.678L825.751 802.678ZM831.9 1063.6L1088.65 1003L1086.35 993.269L829.603 1053.87L831.9 1063.6ZM1092.5 998.827V998.136H1082.5V998.827H1092.5Z" fill="black" mask="url(#path-21-inside-6_206_113)"/>
<path d="M833.251 1056.76V805.146L1085 864.727V1116.34L833.251 1056.76Z" fill="white" stroke="black" stroke-width="5"/>
<path d="M1341.75 1056.92V806L1090 865.42V1116.34L1341.75 1056.92Z" fill="black" stroke="black" stroke-width="5"/>
<mask id="path-25-inside-7_206_113" fill="white">
<path fill-rule="evenodd" clip-rule="evenodd" d="M1087.5 999.982L1344.25 1060.75V803.996L1087.5 743.232L1087.5 743.232V743.232L830.75 803.832L830.75 1059.89L1087.5 999.29V999.982Z"/>
</mask>
<path fill-rule="evenodd" clip-rule="evenodd" d="M1087.5 999.982L1344.25 1060.75V803.996L1087.5 743.232L1087.5 743.232V743.232L830.75 803.832L830.75 1059.89L1087.5 999.29V999.982Z" fill="white"/>
<path d="M1344.25 1060.75L1343.1 1065.61L1349.25 1067.07V1060.75H1344.25ZM1087.5 999.982H1082.5V1003.94L1086.35 1004.85L1087.5 999.982ZM1344.25 803.996H1349.25V800.041L1345.4 799.13L1344.25 803.996ZM1087.5 743.232L1088.65 738.366L1088.59 738.351L1088.52 738.337L1087.5 743.232ZM1087.5 743.232L1088.52 738.336L1082.5 737.084V743.232H1087.5ZM1087.5 743.232L1088.65 748.098L1092.5 747.189V743.232H1087.5ZM830.75 803.832L829.601 798.966L825.75 799.875L825.75 803.832L830.75 803.832ZM830.75 1059.89L825.75 1059.89L825.75 1066.21L831.899 1064.76L830.75 1059.89ZM1087.5 999.29H1092.5V992.973L1086.35 994.424L1087.5 999.29ZM1345.4 1055.88L1088.65 995.116L1086.35 1004.85L1343.1 1065.61L1345.4 1055.88ZM1339.25 803.996V1060.75H1349.25V803.996H1339.25ZM1086.35 748.097L1343.1 808.861L1345.4 799.13L1088.65 738.366L1086.35 748.097ZM1086.48 748.127L1086.48 748.127L1088.52 738.337L1088.52 738.336L1086.48 748.127ZM1092.5 743.232V743.232H1082.5V743.232H1092.5ZM1086.35 738.366L829.601 798.966L831.899 808.699L1088.65 748.098L1086.35 738.366ZM825.75 803.832L825.75 1059.89L835.75 1059.89L835.75 803.832L825.75 803.832ZM831.899 1064.76L1088.65 1004.16L1086.35 994.424L829.601 1055.02L831.899 1064.76ZM1092.5 999.982V999.29H1082.5V999.982H1092.5Z" fill="black" mask="url(#path-25-inside-7_206_113)"/>
<path d="M833.25 1057.91V806.301L1085 865.881V1117.49L833.25 1057.91Z" fill="white" stroke="black" stroke-width="5"/>
<path d="M1341.75 1058.08V807.155L1090 866.575V1117.5L1341.75 1058.08Z" fill="black" stroke="black" stroke-width="5"/>
<mask id="path-29-inside-8_206_113" fill="white">
<path fill-rule="evenodd" clip-rule="evenodd" d="M831.749 1823.7L1088.5 1884.47V1627.72L831.75 1566.95L831.749 1566.95V1566.95L575 1627.55L575 1883.61L831.749 1823.01V1823.7Z"/>
</mask>
<path fill-rule="evenodd" clip-rule="evenodd" d="M831.749 1823.7L1088.5 1884.47V1627.72L831.75 1566.95L831.749 1566.95V1566.95L575 1627.55L575 1883.61L831.749 1823.01V1823.7Z" fill="white"/>
<path d="M1088.5 1884.47L1087.35 1889.33L1093.5 1890.79V1884.47H1088.5ZM831.749 1823.7H826.749V1827.66L830.597 1828.57L831.749 1823.7ZM1088.5 1627.72H1093.5V1623.76L1089.65 1622.85L1088.5 1627.72ZM831.75 1566.95L832.901 1562.09L832.835 1562.07L832.768 1562.06L831.75 1566.95ZM831.749 1566.95L832.767 1562.06L826.749 1560.81V1566.95H831.749ZM831.749 1566.95L832.897 1571.82L836.749 1570.91V1566.95H831.749ZM575 1627.55L573.851 1622.69L570 1623.6L570 1627.55L575 1627.55ZM575 1883.61L570 1883.61L570 1889.93L576.149 1888.48L575 1883.61ZM831.749 1823.01H836.749V1816.69L830.6 1818.15L831.749 1823.01ZM1089.65 1879.6L832.9 1818.84L830.597 1828.57L1087.35 1889.33L1089.65 1879.6ZM1083.5 1627.72V1884.47H1093.5V1627.72H1083.5ZM830.598 1571.82L1087.35 1632.58L1089.65 1622.85L832.901 1562.09L830.598 1571.82ZM830.73 1571.85L830.732 1571.85L832.768 1562.06L832.767 1562.06L830.73 1571.85ZM836.749 1566.95V1566.95H826.749V1566.95H836.749ZM830.6 1562.09L573.851 1622.69L576.149 1632.42L832.897 1571.82L830.6 1562.09ZM570 1627.55L570 1883.61L580 1883.61L580 1627.55L570 1627.55ZM576.149 1888.48L832.897 1827.88L830.6 1818.15L573.851 1878.75L576.149 1888.48ZM836.749 1823.7V1823.01H826.749V1823.7H836.749Z" fill="black" mask="url(#path-29-inside-8_206_113)"/>
<path d="M577.5 1881.63V1630.02L829.25 1689.6V1941.22L577.5 1881.63Z" fill="white" stroke="black" stroke-width="5"/>
<path d="M1086 1881.8V1630.88L834.249 1690.3V1941.22L1086 1881.8Z" fill="black" stroke="black" stroke-width="5"/>
<mask id="path-33-inside-9_206_113" fill="white">
<path fill-rule="evenodd" clip-rule="evenodd" d="M831.749 1568.7L1088.5 1629.47V1372.72L831.75 1311.95L831.749 1311.95V1311.95L575 1372.55L575 1628.61L831.749 1568.01V1568.7Z"/>
</mask>
<path fill-rule="evenodd" clip-rule="evenodd" d="M831.749 1568.7L1088.5 1629.47V1372.72L831.75 1311.95L831.749 1311.95V1311.95L575 1372.55L575 1628.61L831.749 1568.01V1568.7Z" fill="white"/>
<path d="M1088.5 1629.47L1087.35 1634.33L1093.5 1635.79V1629.47H1088.5ZM831.749 1568.7H826.749V1572.66L830.597 1573.57L831.749 1568.7ZM1088.5 1372.72H1093.5V1368.76L1089.65 1367.85L1088.5 1372.72ZM831.75 1311.95L832.901 1307.09L832.835 1307.07L832.768 1307.06L831.75 1311.95ZM831.749 1311.95L832.767 1307.06L826.749 1305.81V1311.95H831.749ZM831.749 1311.95L832.897 1316.82L836.749 1315.91V1311.95H831.749ZM575 1372.55L573.851 1367.69L570 1368.6L570 1372.55L575 1372.55ZM575 1628.61L570 1628.61L570 1634.93L576.149 1633.48L575 1628.61ZM831.749 1568.01H836.749V1561.69L830.6 1563.15L831.749 1568.01ZM1089.65 1624.6L832.9 1563.84L830.597 1573.57L1087.35 1634.33L1089.65 1624.6ZM1083.5 1372.72V1629.47H1093.5V1372.72H1083.5ZM830.598 1316.82L1087.35 1377.58L1089.65 1367.85L832.901 1307.09L830.598 1316.82ZM830.73 1316.85L830.732 1316.85L832.768 1307.06L832.767 1307.06L830.73 1316.85ZM836.749 1311.95V1311.95H826.749V1311.95H836.749ZM830.6 1307.09L573.851 1367.69L576.149 1377.42L832.897 1316.82L830.6 1307.09ZM570 1372.55L570 1628.61L580 1628.61L580 1372.55L570 1372.55ZM576.149 1633.48L832.897 1572.88L830.6 1563.15L573.851 1623.75L576.149 1633.48ZM836.749 1568.7V1568.01H826.749V1568.7H836.749Z" fill="black" mask="url(#path-33-inside-9_206_113)"/>
<path d="M577.5 1626.63V1375.02L829.25 1434.6V1686.22L577.5 1626.63Z" fill="white" stroke="black" stroke-width="5"/>
<path d="M1086 1626.8V1375.88L834.249 1435.3V1686.22L1086 1626.8Z" fill="black" stroke="black" stroke-width="5"/>
<mask id="path-37-inside-10_206_113" fill="white">
<path fill-rule="evenodd" clip-rule="evenodd" d="M1087.5 488.75L1344.25 549.514V292.764L1087.5 232.001L1087.5 232V232.001L830.751 292.601L830.751 548.659L1087.5 488.059V488.75Z"/>
</mask>
<path fill-rule="evenodd" clip-rule="evenodd" d="M1087.5 488.75L1344.25 549.514V292.764L1087.5 232.001L1087.5 232V232.001L830.751 292.601L830.751 548.659L1087.5 488.059V488.75Z" fill="white"/>
<path d="M1344.25 549.514L1343.1 554.38L1349.25 555.836V549.514H1344.25ZM1087.5 488.75H1082.5V492.705L1086.35 493.616L1087.5 488.75ZM1344.25 292.764H1349.25V288.809L1345.4 287.899L1344.25 292.764ZM1087.5 232.001L1085.43 236.553L1085.88 236.754L1086.35 236.866L1087.5 232.001ZM1087.5 232L1089.57 227.448L1082.5 224.238V232H1087.5ZM1087.5 232.001L1088.65 236.867L1092.5 235.958V232.001H1087.5ZM830.751 292.601L829.602 287.735L825.751 288.644L825.751 292.601L830.751 292.601ZM830.751 548.659L825.751 548.659L825.751 554.976L831.9 553.525L830.751 548.659ZM1087.5 488.059H1092.5V481.741L1086.35 483.193L1087.5 488.059ZM1345.4 544.649L1088.65 483.884L1086.35 493.616L1343.1 554.38L1345.4 544.649ZM1339.25 292.764V549.514H1349.25V292.764H1339.25ZM1086.35 236.866L1343.1 297.63L1345.4 287.899L1088.65 227.135L1086.35 236.866ZM1085.43 236.552L1085.43 236.553L1089.57 227.448L1089.57 227.448L1085.43 236.552ZM1092.5 232.001V232H1082.5V232.001H1092.5ZM1086.35 227.135L829.602 287.735L831.9 297.467L1088.65 236.867L1086.35 227.135ZM825.751 292.601L825.751 548.659L835.751 548.659L835.751 292.601L825.751 292.601ZM831.9 553.525L1088.65 492.925L1086.35 483.193L829.602 543.793L831.9 553.525ZM1092.5 488.75V488.059H1082.5V488.75H1092.5Z" fill="black" mask="url(#path-37-inside-10_206_113)"/>
<path d="M833.251 546.681V295.069L1085 354.65V606.262L833.251 546.681Z" fill="white" stroke="black" stroke-width="5"/>
<path d="M1341.75 546.844V295.924L1090 355.344V606.264L1341.75 546.844Z" fill="black" stroke="black" stroke-width="5"/>
</svg>
